<?xml version="1.0" encoding="utf-8"?>
<!-- Generator: Adobe Illustrator 16.0.0, SVG Export Plug-In . SVG Version: 6.00 Build 0)  -->
<!DOCTYPE svg PUBLIC "-//W3C//DTD SVG 1.1//EN" "http://www.w3.org/Graphics/SVG/1.1/DTD/svg11.dtd">
<svg version="1.1" id="Layer_1" xmlns="http://www.w3.org/2000/svg" xmlns:xlink="http://www.w3.org/1999/xlink" x="0px" y="0px"
	 width="558.5px" height="94.5px" viewBox="0 0 558.5 94.5" enable-background="new 0 0 558.5 94.5" xml:space="preserve">
<g>
	<path fill="#F19C22" d="M-76.508,270.96c-1.936,2.847-2.904,6.674-2.904,11.483v1.849h11.615c0.705,0,1.277,0.222,1.717,0.66
		s0.66,1.012,0.66,1.716s-0.221,1.275-0.66,1.716s-1.012,0.66-1.717,0.66h-11.615v38.984c0,0.763-0.25,1.395-0.748,1.892
		c-0.498,0.499-1.158,0.748-1.98,0.748c-0.762,0-1.393-0.249-1.891-0.748c-0.5-0.497-0.748-1.129-0.748-1.892v-38.984h-6.865
		c-0.703,0-1.275-0.221-1.715-0.66c-0.441-0.438-0.66-1.012-0.66-1.716s0.219-1.275,0.66-1.716c0.439-0.438,1.012-0.66,1.715-0.66
		h6.865v-1.849c0-6.276,1.465-11.264,4.398-14.961c2.934-3.694,7.334-5.543,13.201-5.543c0.762,0,1.393,0.221,1.893,0.66
		c0.496,0.439,0.748,1.012,0.748,1.715c0,0.705-0.252,1.276-0.748,1.718c-0.5,0.438-1.131,0.659-1.893,0.659
		C-71.463,266.691-74.572,268.115-76.508,270.96z"/>
	<path fill="#F19C22" d="M-25.283,285.216c3.754,2.144,6.701,5.091,8.844,8.845c2.141,3.756,3.211,7.95,3.211,12.583
		c0,4.576-1.07,8.742-3.211,12.496c-2.143,3.757-5.09,6.703-8.844,8.845c-3.756,2.143-7.92,3.213-12.496,3.213
		c-4.637,0-8.83-1.07-12.584-3.213c-3.756-2.142-6.703-5.089-8.844-8.845c-2.143-3.754-3.213-7.92-3.213-12.496
		c0-4.633,1.07-8.827,3.213-12.583c2.141-3.754,5.088-6.701,8.844-8.845c3.754-2.141,7.947-3.212,12.584-3.212
		C-33.203,282.004-29.039,283.075-25.283,285.216z M-47.637,289.527c-2.934,1.73-5.25,4.093-6.951,7.084
		c-1.703,2.992-2.553,6.337-2.553,10.031c0,3.696,0.85,7.041,2.553,10.032c1.701,2.992,4.018,5.339,6.951,7.04
		c2.934,1.703,6.219,2.553,9.857,2.553c3.637,0,6.922-0.85,9.855-2.553c2.934-1.701,5.236-4.048,6.908-7.04
		c1.672-2.991,2.508-6.336,2.508-10.032c0-3.694-0.836-7.039-2.508-10.031c-1.672-2.991-3.975-5.354-6.908-7.084
		c-2.933-1.729-6.219-2.596-9.855-2.596C-41.418,286.934-44.703,287.798-47.637,289.527z"/>
	<path fill="#F19C22" d="M25.129,284.908c0,0.294-0.029,0.527-0.088,0.703c-0.176,0.646-0.455,1.101-0.836,1.363
		c-0.381,0.264-0.895,0.396-1.539,0.396c-0.527,0-1.219-0.059-2.068-0.176c-0.852-0.117-1.57-0.176-2.156-0.176
		c-2.934,0-5.543,0.614-7.832,1.848c-2.287,1.232-4.078,2.934-5.367,5.104c-1.291,2.172-1.936,4.606-1.936,7.305v26.753
		c0,0.763-0.236,1.395-0.705,1.892c-0.471,0.499-1.115,0.748-1.936,0.748c-0.764,0-1.395-0.249-1.893-0.748
		c-0.498-0.497-0.748-1.129-0.748-1.892v-42.856c0-0.82,0.25-1.466,0.748-1.938c0.498-0.469,1.129-0.702,1.893-0.702
		c0.82,0,1.465,0.233,1.936,0.702c0.469,0.472,0.705,1.115,0.705,1.938v5.456c1.699-2.696,3.871-4.81,6.512-6.336
		c2.639-1.524,5.514-2.288,8.623-2.288C22.9,282.004,25.129,282.973,25.129,284.908z"/>
	<path fill="#F19C22" d="M65.898,285.172c3.727,2.112,6.629,5.031,8.713,8.756c2.082,3.727,3.123,7.965,3.123,12.716v17.248
		c0,4.695-1.055,8.961-3.168,12.806c-2.111,3.842-5.016,6.862-8.711,9.063s-7.803,3.3-12.32,3.3c-4.635,0-8.697-0.864-12.188-2.596
		c-3.492-1.729-6.41-4.092-8.756-7.084c-0.471-0.587-0.705-1.174-0.705-1.76c0-0.704,0.293-1.262,0.881-1.672
		c0.469-0.353,0.996-0.528,1.584-0.528c0.938,0,1.701,0.381,2.287,1.144c1.938,2.347,4.326,4.194,7.172,5.546
		c2.846,1.349,6.086,2.022,9.725,2.022c3.578,0,6.805-0.88,9.68-2.64c2.875-1.762,5.133-4.182,6.775-7.262
		c1.642-3.079,2.465-6.524,2.465-10.34v-3.871c-1.701,3.463-4.238,6.189-7.611,8.185c-3.375,1.995-7.26,2.992-11.66,2.992
		c-4.752,0-8.992-1.041-12.717-3.125c-3.727-2.081-6.643-4.984-8.756-8.711c-2.111-3.726-3.168-7.966-3.168-12.718
		c0-4.691,1.086-8.916,3.256-12.672c2.17-3.754,5.133-6.688,8.889-8.8c3.754-2.112,7.92-3.168,12.496-3.168
		C57.936,282.004,62.174,283.061,65.898,285.172z M63.127,323.76c2.934-1.672,5.221-3.988,6.863-6.952
		c1.643-2.961,2.465-6.35,2.465-10.164c0-3.813-0.822-7.216-2.465-10.206c-1.643-2.992-3.93-5.324-6.863-6.996
		s-6.248-2.508-9.943-2.508c-3.756,0-7.1,0.836-10.031,2.508c-2.936,1.672-5.223,4.004-6.865,6.996
		c-1.643,2.99-2.463,6.395-2.463,10.206c0,3.814,0.82,7.203,2.463,10.164c1.643,2.964,3.93,5.28,6.865,6.952
		c2.932,1.673,6.275,2.509,10.031,2.509C56.879,326.269,60.193,325.433,63.127,323.76z"/>
	<path fill="#F19C22" d="M121.33,285.128c3.373,2.022,5.998,4.826,7.875,8.404c1.877,3.579,2.816,7.655,2.816,12.231
		c0,0.763-0.234,1.363-0.703,1.804c-0.471,0.439-1.086,0.659-1.85,0.659h-36.87c0.176,3.464,1.084,6.558,2.729,9.285
		c1.641,2.728,3.842,4.854,6.6,6.379c2.756,1.527,5.836,2.289,9.24,2.289c2.287,0,4.59-0.396,6.908-1.188
		c2.316-0.792,4.148-1.833,5.5-3.124c0.586-0.469,1.201-0.704,1.848-0.704c0.645,0,1.172,0.176,1.584,0.528
		c0.645,0.526,0.969,1.144,0.969,1.848c0,0.587-0.266,1.145-0.793,1.672c-1.879,1.702-4.326,3.11-7.348,4.226
		c-3.023,1.114-5.912,1.672-8.668,1.672c-4.635,0-8.756-1.041-12.365-3.125c-3.607-2.081-6.438-4.985-8.49-8.711
		c-2.055-3.727-3.08-7.935-3.08-12.63c0-4.751,0.951-8.989,2.859-12.716c1.906-3.725,4.576-6.628,8.008-8.712
		c3.432-2.082,7.348-3.124,11.748-3.124C114.127,282.092,117.955,283.104,121.33,285.128z M98.273,291.598
		c-3.139,3.051-5.002,7.068-5.588,12.055h34.232c-0.412-4.985-2.172-9.004-5.279-12.055c-3.111-3.052-7.041-4.576-11.793-4.576
		C105.27,287.021,101.412,288.546,98.273,291.598z"/>
	<path fill="#F19C22" d="M188.322,262.645c0.471,0.471,0.705,1.114,0.705,1.937v42.328v0.176c-0.059,4.52-1.174,8.624-3.344,12.319
		c-2.172,3.696-5.119,6.587-8.844,8.668c-3.727,2.084-7.848,3.125-12.365,3.125c-4.635,0-8.83-1.07-12.584-3.213
		c-3.754-2.142-6.703-5.088-8.844-8.845c-2.143-3.754-3.211-7.948-3.211-12.584c0-4.575,1.068-8.739,3.211-12.495
		c2.141-3.754,5.09-6.701,8.844-8.845c3.754-2.141,7.949-3.212,12.584-3.212c4.166,0,7.934,0.896,11.309,2.686
		c3.373,1.789,6.027,4.238,7.965,7.348V264.58c0-0.821,0.248-1.467,0.748-1.938c0.496-0.469,1.129-0.703,1.891-0.703
		C187.209,261.939,187.854,262.175,188.322,262.645z M174.332,323.672c2.932-1.729,5.234-4.092,6.906-7.084
		c1.674-2.991,2.51-6.336,2.51-10.032c0-3.694-0.836-7.038-2.51-10.03c-1.672-2.992-3.975-5.338-6.906-7.041
		c-2.936-1.7-6.221-2.551-9.857-2.551c-3.636,0-6.922,0.851-9.855,2.551c-2.934,1.703-5.252,4.049-6.951,7.041
		c-1.703,2.992-2.553,6.336-2.553,10.03c0,3.696,0.85,7.041,2.553,10.032c1.699,2.992,4.018,5.354,6.951,7.084
		c2.934,1.731,6.219,2.597,9.855,2.597C168.111,326.269,171.396,325.403,174.332,323.672z"/>
	<path fill="#F19C22" d="M262.111,285.128c3.373,2.022,5.998,4.826,7.875,8.404c1.877,3.579,2.815,7.655,2.815,12.231
		c0,0.763-0.233,1.363-0.702,1.804c-0.472,0.439-1.086,0.659-1.851,0.659h-36.871c0.176,3.464,1.084,6.558,2.729,9.285
		c1.641,2.728,3.842,4.854,6.6,6.379c2.756,1.527,5.836,2.289,9.24,2.289c2.287,0,4.59-0.396,6.908-1.188
		c2.316-0.792,4.148-1.833,5.5-3.124c0.586-0.469,1.201-0.704,1.848-0.704c0.645,0,1.172,0.176,1.584,0.528
		c0.645,0.526,0.969,1.144,0.969,1.848c0,0.587-0.266,1.145-0.793,1.672c-1.879,1.702-4.326,3.11-7.348,4.226
		c-3.023,1.114-5.912,1.672-8.668,1.672c-4.635,0-8.756-1.041-12.365-3.125c-3.607-2.081-6.438-4.985-8.49-8.711
		c-2.055-3.727-3.08-7.935-3.08-12.63c0-4.751,0.951-8.989,2.859-12.716c1.906-3.725,4.576-6.628,8.008-8.712
		c3.432-2.082,7.348-3.124,11.748-3.124C254.908,282.092,258.736,283.104,262.111,285.128z M239.055,291.598
		c-3.139,3.051-5.002,7.068-5.588,12.055h34.232c-0.412-4.985-2.172-9.004-5.279-12.055c-3.111-3.052-7.041-4.576-11.793-4.576
		C246.051,287.021,242.193,288.546,239.055,291.598z"/>
	<path fill="#F19C22" d="M282.65,262.645c0.496-0.47,1.129-0.703,1.891-0.703c0.822,0,1.467,0.233,1.938,0.703
		c0.47,0.471,0.703,1.114,0.703,1.937v51.567c0,2.698,0.572,4.914,1.717,6.645c1.144,1.73,2.625,2.596,4.443,2.596h2.199
		c0.646,0,1.174,0.235,1.584,0.704c0.41,0.471,0.617,1.115,0.617,1.938c0,0.763-0.236,1.395-0.705,1.892
		c-0.469,0.499-1.115,0.748-1.936,0.748h-1.761c-3.344,0-6.088-1.349-8.229-4.048c-2.143-2.697-3.211-6.189-3.211-10.473V264.58
		C281.902,263.759,282.15,263.114,282.65,262.645z"/>
	<path fill="#F19C22" d="M335.256,285.128c3.373,2.022,5.998,4.826,7.875,8.404c1.877,3.579,2.816,7.655,2.816,12.231
		c0,0.763-0.234,1.363-0.703,1.804c-0.471,0.439-1.086,0.659-1.85,0.659h-36.871c0.176,3.464,1.084,6.558,2.729,9.285
		c1.641,2.728,3.842,4.854,6.6,6.379c2.756,1.527,5.836,2.289,9.24,2.289c2.287,0,4.59-0.396,6.908-1.188
		c2.316-0.792,4.148-1.833,5.5-3.124c0.586-0.469,1.201-0.704,1.848-0.704c0.646,0,1.172,0.176,1.584,0.528
		c0.646,0.526,0.969,1.144,0.969,1.848c0,0.587-0.266,1.145-0.793,1.672c-1.879,1.702-4.325,3.11-7.348,4.226
		c-3.023,1.114-5.912,1.672-8.668,1.672c-4.635,0-8.756-1.041-12.365-3.125c-3.606-2.081-6.438-4.985-8.489-8.711
		c-2.056-3.727-3.08-7.935-3.08-12.63c0-4.751,0.95-8.989,2.858-12.716c1.906-3.725,4.576-6.628,8.008-8.712
		c3.433-2.082,7.349-3.124,11.748-3.124C328.053,282.092,331.881,283.104,335.256,285.128z M312.199,291.598
		c-3.139,3.051-5.002,7.068-5.588,12.055h34.231c-0.411-4.985-2.172-9.004-5.278-12.055c-3.111-3.052-7.041-4.576-11.793-4.576
		C319.195,287.021,315.338,288.546,312.199,291.598z"/>
	<path fill="#F19C22" d="M416.232,284.557c2.758,1.76,4.897,4.211,6.424,7.348c1.524,3.14,2.289,6.703,2.289,10.693v25.432
		c0,0.763-0.236,1.395-0.705,1.892c-0.471,0.499-1.115,0.748-1.937,0.748c-0.764,0-1.395-0.249-1.893-0.748
		c-0.498-0.497-0.748-1.129-0.748-1.892v-25.432c0-4.519-1.203-8.214-3.607-11.09c-2.405-2.874-5.485-4.313-9.239-4.313
		c-4.107,0-7.422,1.351-9.943,4.049c-2.523,2.697-3.727,6.277-3.609,10.734v0.617v25.433c0,0.763-0.233,1.395-0.703,1.892
		c-0.471,0.499-1.114,0.748-1.936,0.748c-0.764,0-1.395-0.249-1.893-0.748c-0.498-0.497-0.748-1.129-0.748-1.892v-25.433
		c0-4.518-1.203-8.213-3.607-11.089c-2.406-2.874-5.486-4.312-9.24-4.312c-4.049,0-7.363,1.291-9.942,3.871
		c-2.582,2.582-3.873,5.927-3.873,10.033v26.928c0,0.763-0.234,1.395-0.703,1.892c-0.472,0.499-1.115,0.748-1.938,0.748
		c-0.762,0-1.393-0.249-1.891-0.748c-0.5-0.497-0.748-1.129-0.748-1.892v-42.856c0-0.821,0.248-1.466,0.748-1.937
		c0.498-0.469,1.129-0.703,1.891-0.703c0.822,0,1.467,0.234,1.938,0.703c0.469,0.471,0.703,1.115,0.703,1.937v3.433
		c1.643-2.111,3.666-3.754,6.071-4.929c2.404-1.173,4.986-1.76,7.744-1.76c3.402,0,6.453,0.836,9.152,2.508
		c2.697,1.673,4.84,3.976,6.424,6.908c1.584-2.933,3.783-5.235,6.601-6.908c2.815-1.672,5.983-2.508,9.504-2.508
		C410.337,281.915,413.475,282.796,416.232,284.557z"/>
	<path fill="#F19C22" d="M469.717,285.128c3.373,2.022,5.998,4.826,7.877,8.404c1.877,3.579,2.816,7.655,2.816,12.231
		c0,0.763-0.236,1.363-0.705,1.804c-0.471,0.439-1.086,0.659-1.848,0.659h-36.871c0.176,3.464,1.084,6.558,2.727,9.285
		c1.644,2.728,3.842,4.854,6.601,6.379c2.758,1.527,5.838,2.289,9.239,2.289c2.289,0,4.59-0.396,6.908-1.188
		c2.316-0.792,4.15-1.833,5.5-3.124c0.586-0.469,1.203-0.704,1.848-0.704c0.646,0,1.175,0.176,1.584,0.528
		c0.646,0.526,0.97,1.144,0.97,1.848c0,0.587-0.265,1.145-0.791,1.672c-1.879,1.702-4.328,3.11-7.351,4.226
		c-3.021,1.114-5.91,1.672-8.668,1.672c-4.635,0-8.756-1.041-12.362-3.125c-3.607-2.081-6.439-4.985-8.492-8.711
		c-2.056-3.727-3.08-7.935-3.08-12.63c0-4.751,0.953-8.989,2.858-12.716c1.906-3.725,4.576-6.628,8.011-8.712
		c3.432-2.082,7.348-3.124,11.748-3.124C462.516,282.092,466.344,283.104,469.717,285.128z M446.662,291.598
		c-3.141,3.051-5.004,7.068-5.588,12.055h34.229c-0.41-4.985-2.17-9.004-5.278-12.055c-3.109-3.052-7.039-4.576-11.791-4.576
		C453.658,287.021,449.799,288.546,446.662,291.598z"/>
	<path fill="#F19C22" d="M523.986,284.557c3.373,1.76,6.014,4.327,7.92,7.699c1.906,3.374,2.858,7.407,2.858,12.102v23.672
		c0,0.763-0.25,1.395-0.748,1.892c-0.497,0.499-1.129,0.748-1.891,0.748c-0.764,0-1.395-0.249-1.893-0.748
		c-0.498-0.497-0.748-1.129-0.748-1.892v-23.672c0-5.573-1.57-9.826-4.707-12.76c-3.142-2.935-7.232-4.4-12.277-4.4
		c-3.108,0-5.938,0.602-8.492,1.804c-2.551,1.203-4.561,2.875-6.026,5.017c-1.467,2.143-2.199,4.502-2.199,7.084v26.929
		c0,0.763-0.236,1.395-0.705,1.892c-0.471,0.499-1.115,0.748-1.936,0.748c-0.765,0-1.396-0.249-1.894-0.748
		c-0.498-0.497-0.748-1.129-0.748-1.892v-42.856c0-0.82,0.25-1.466,0.748-1.938c0.498-0.469,1.129-0.702,1.894-0.702
		c0.819,0,1.465,0.233,1.936,0.702c0.469,0.472,0.705,1.115,0.705,1.938v4.576c1.992-2.464,4.428-4.385,7.303-5.766
		c2.875-1.377,6.014-2.066,9.416-2.066C516.785,281.916,520.611,282.796,523.986,284.557z"/>
	<path fill="#F19C22" d="M569.93,326.048c0.498,0.499,0.748,1.159,0.748,1.98c0,0.763-0.25,1.395-0.748,1.892
		c-0.498,0.499-1.158,0.748-1.979,0.748h-2.025c-3.227,0-6.102-0.733-8.623-2.2c-2.522-1.465-4.487-3.476-5.896-6.026
		c-1.408-2.554-2.111-5.441-2.111-8.668v-24.729h-6.865c-0.703,0-1.274-0.222-1.715-0.66c-0.439-0.438-0.66-1.012-0.66-1.716
		s0.222-1.275,0.66-1.716c0.439-0.44,1.012-0.66,1.715-0.66h6.865v-19.345c0-0.82,0.248-1.479,0.748-1.979
		c0.498-0.498,1.129-0.748,1.891-0.748c0.822,0,1.482,0.25,1.98,0.748c0.498,0.5,0.748,1.159,0.748,1.979v19.345h11.617
		c0.702,0,1.274,0.222,1.715,0.66c0.439,0.438,0.66,1.012,0.66,1.716s-0.222,1.275-0.66,1.716c-0.439,0.44-1.013,0.66-1.715,0.66
		h-11.617v24.729c0,3.401,1.057,6.175,3.168,8.314c2.113,2.143,4.84,3.212,8.184,3.212h1.938
		C568.771,325.3,569.432,325.55,569.93,326.048z"/>
	<path fill="#F19C22" d="M613.041,289.924c0.354,0.411,0.529,0.91,0.529,1.496c0,0.822-0.472,1.496-1.408,2.023
		c-0.588,0.234-1.027,0.353-1.32,0.353c-0.881,0-1.613-0.381-2.199-1.146c-2.991-3.813-7.188-5.719-12.584-5.719
		c-3.58,0-6.424,0.777-8.536,2.332c-2.111,1.555-3.169,3.476-3.169,5.764c0,2.348,1.013,4.225,3.037,5.633
		c2.023,1.406,5.412,2.464,10.164,3.168c6.217,0.88,10.691,2.538,13.42,4.972c2.728,2.437,4.093,5.383,4.093,8.844
		c0,2.699-0.867,5.076-2.597,7.13c-1.731,2.054-4.035,3.638-6.908,4.752c-2.875,1.114-6.016,1.672-9.416,1.672
		c-3.403,0-6.719-0.603-9.944-1.806c-3.228-1.2-5.896-3.034-8.008-5.5c-0.41-0.469-0.615-0.995-0.615-1.584
		c0-0.819,0.381-1.496,1.145-2.022c0.353-0.293,0.851-0.44,1.496-0.44c0.82,0,1.496,0.323,2.023,0.968
		c2.932,3.58,7.655,5.369,14.168,5.369c4.633,0,8.051-0.821,10.252-2.465c2.199-1.642,3.299-3.754,3.299-6.336
		c0-4.634-4.486-7.597-13.463-8.888c-5.691-0.821-9.988-2.376-12.894-4.664c-2.904-2.288-4.354-5.045-4.354-8.272
		c0-4.281,1.568-7.611,4.707-9.988c3.139-2.375,7.229-3.563,12.277-3.563C603.625,282.004,609.229,284.645,613.041,289.924z"/>
</g>
<g enable-background="new    ">
	<path fill="none" stroke="#F19C22" stroke-width="2" stroke-miterlimit="10" d="M38.618,38.934h-18.04v32.208
		c0,5.221-0.748,9.371-2.244,12.451s-4.268,5.324-8.316,6.732C9.49,90.502,9.168,90.59,9.05,90.59c-0.469,0-0.704-0.205-0.704-0.615
		c0-0.412,0.176-0.676,0.528-0.793c3.93-1.232,6.614-3.285,8.052-6.16c1.437-2.875,2.156-6.834,2.156-11.879V38.934h-7.04
		c-0.528,0-0.792-0.249-0.792-0.748c0-0.498,0.264-0.748,0.792-0.748h7.04V17.462c0-4.929,1.012-8.418,3.036-10.473
		c2.024-2.053,5.162-3.08,9.416-3.08c4.253,0,7.905,0.939,10.956,2.816c0.234,0.176,0.352,0.382,0.352,0.616v7.92
		c0,0.47-0.25,0.704-0.748,0.704c-0.499,0-0.748-0.234-0.748-0.704v-7.48c-2.816-1.584-6.16-2.376-10.032-2.376
		s-6.63,0.939-8.272,2.816c-1.643,1.878-2.464,4.987-2.464,9.328v19.888h18.04c0.469,0,0.704,0.25,0.704,0.748
		C39.322,38.685,39.087,38.934,38.618,38.934z"/>
	<path fill="none" stroke="#F19C22" stroke-width="2" stroke-miterlimit="10" d="M47.111,66.082
		c-3.022-3.137-4.532-7.201-4.532-12.188s1.51-9.049,4.532-12.188c3.021-3.139,6.908-4.708,11.66-4.708s8.638,1.569,11.66,4.708
		c3.021,3.139,4.532,7.202,4.532,12.188s-1.511,9.051-4.532,12.188c-3.022,3.139-6.908,4.709-11.66,4.709
		S50.132,69.221,47.111,66.082z M69.375,64.982c2.728-2.875,4.092-6.57,4.092-11.088s-1.364-8.213-4.092-11.088
		c-2.728-2.874-6.263-4.313-10.604-4.313c-4.342,0-7.876,1.438-10.604,4.313c-2.728,2.875-4.092,6.571-4.092,11.088
		s1.364,8.213,4.092,11.088s6.262,4.313,10.604,4.313C63.112,69.295,66.647,67.857,69.375,64.982z"/>
	<path fill="none" stroke="#F19C22" stroke-width="2" stroke-miterlimit="10" d="M89.13,69.998c0,0.469-0.25,0.703-0.748,0.703
		c-0.499,0-0.748-0.234-0.748-0.703V42.014c0-2.053-1.438-3.08-4.312-3.08h-3.256c-0.528,0-0.792-0.249-0.792-0.748
		c0-0.498,0.264-0.748,0.792-0.748h3.432c3.754,0,5.632,1.526,5.632,4.576v4.136c1.818-3.05,3.725-5.338,5.72-6.864
		c1.994-1.524,4.341-2.287,7.04-2.287c2.698,0,4.81,0.47,6.336,1.407c0.293,0.177,0.44,0.411,0.44,0.704v7.832
		c0,0.471-0.25,0.704-0.748,0.704c-0.499,0-0.748-0.233-0.748-0.704v-7.479c-1.408-0.646-2.963-0.969-4.664-0.969
		c-2.875,0-5.354,0.822-7.436,2.465c-2.083,1.643-4.063,4.312-5.94,8.008V69.998z"/>
	<path fill="none" stroke="#F19C22" stroke-width="2" stroke-miterlimit="10" d="M143.206,86.059
		c-2.142,1.672-4.606,2.844-7.392,3.52c-2.788,0.674-5.984,1.012-9.592,1.012s-6.967-0.967-10.076-2.904
		c-3.11-1.936-4.664-4.678-4.664-8.227c0-3.551,1.817-6.469,5.456-8.758c-1.76-0.879-2.64-2.199-2.64-3.959
		c0-2.521,2.61-4.723,7.832-6.6c-4.576-2.229-6.864-5.896-6.864-11c0-3.579,1.217-6.498,3.652-8.756
		c2.434-2.258,5.412-3.388,8.932-3.388s6.482,0.88,8.888,2.64c2.933-2.229,4.4-5.016,4.4-8.36c0-1.524-0.352-3.196-1.056-5.016
		c-0.235-0.41-0.206-0.689,0.088-0.836c0.292-0.146,0.498-0.22,0.616-0.22c0.293,0,0.498,0.176,0.616,0.527
		c0.821,2.055,1.232,3.902,1.232,5.544c0,3.639-1.614,6.719-4.84,9.24c2.464,2.288,3.696,5.236,3.696,8.843
		c0,3.609-1.276,6.514-3.828,8.713c-2.552,2.199-5.676,3.301-9.372,3.301c-1.584,0-2.963-0.178-4.136-0.529
		c-5.574,1.643-8.36,3.607-8.36,5.896c0,1.994,2.053,3.314,6.16,3.959c2.053,0.293,4.825,0.646,8.316,1.057
		c3.49,0.41,5.676,0.674,6.556,0.793c2.992,0.408,5.338,1.172,7.04,2.287c1.701,1.113,2.552,2.846,2.552,5.191
		S145.347,84.387,143.206,86.059z M118.346,71.318c-3.579,2.111-5.368,4.707-5.368,7.787s1.305,5.514,3.916,7.305
		c2.61,1.789,6.16,2.684,10.648,2.684c4.488,0,8.492-0.822,12.012-2.463c3.52-1.645,5.28-3.844,5.28-6.602
		c0-3.344-2.728-5.367-8.184-6.07c-8.507-1-13.362-1.584-14.564-1.762C120.883,72.021,119.636,71.729,118.346,71.318z
		 M139.994,49.186c0-3.137-1.086-5.705-3.256-7.7c-2.171-1.993-4.972-2.992-8.404-2.992c-3.432,0-6.219,0.999-8.36,2.992
		c-2.142,1.995-3.212,4.563-3.212,7.7c0,3.141,1.07,5.707,3.212,7.701c2.141,1.994,4.928,2.992,8.36,2.992
		c3.432,0,6.233-0.998,8.404-2.992C138.908,54.893,139.994,52.326,139.994,49.186z"/>
	<path fill="none" stroke="#F19C22" stroke-width="2" stroke-miterlimit="10" d="M165.337,70.791c-4.987,0-8.888-1.6-11.704-4.797
		c-2.816-3.197-4.224-7.273-4.224-12.232c0-4.957,1.466-8.99,4.4-12.1c2.933-3.108,6.776-4.663,11.528-4.663
		s8.272,1.438,10.56,4.312c2.288,2.875,3.432,6.776,3.432,11.704c0,0.529-0.235,0.793-0.704,0.793h-27.72v0.088
		c0,4.693,1.305,8.434,3.916,11.219c2.609,2.787,6.116,4.182,10.516,4.182c5.632,0,9.768-2.113,12.408-6.336
		c0.293-0.41,0.645-0.484,1.056-0.221c0.41,0.264,0.498,0.602,0.264,1.012C176.131,68.445,171.555,70.791,165.337,70.791z
		 M177.833,52.311c0-4.166-1.027-7.509-3.08-10.033c-2.054-2.521-5.163-3.784-9.328-3.784c-4.167,0-7.54,1.263-10.12,3.784
		c-2.583,2.523-4.048,5.867-4.4,10.033H177.833z"/>
	<path fill="none" stroke="#F19C22" stroke-width="2" stroke-miterlimit="10" d="M202.824,70.791c-4.928,0-8.654-1.629-11.176-4.885
		c-2.523-3.256-3.784-7.289-3.784-12.1s1.29-8.814,3.872-12.012c2.581-3.197,6.394-4.796,11.44-4.796
		c5.045,0,9.709,2.083,13.992,6.248v-37.4H209.6c-0.528,0-0.792-0.249-0.792-0.748c0-0.498,0.264-0.748,0.792-0.748h8.36
		c0.469,0,0.704,0.235,0.704,0.704v60.631c0,2.113,1.437,3.168,4.312,3.168h3.344c0.469,0,0.704,0.25,0.704,0.748
		c0,0.5-0.235,0.748-0.704,0.748h-3.344c-3.872,0-5.808-1.553-5.808-4.664v-3.871C213.296,67.799,208.514,70.791,202.824,70.791z
		 M202.824,38.494c-4.166,0-7.451,1.38-9.856,4.137c-2.406,2.758-3.608,6.512-3.608,11.264s1.202,8.506,3.608,11.264
		c2.405,2.758,5.69,4.137,9.856,4.137c5.866,0,10.648-3.373,14.344-10.121V45.182c-1.703-1.877-3.814-3.461-6.336-4.752
		C208.309,39.14,205.64,38.494,202.824,38.494z"/>
	<path fill="none" stroke="#F19C22" stroke-width="2" stroke-miterlimit="10" d="M267.855,70.791c-4.986,0-8.888-1.6-11.703-4.797
		c-2.817-3.197-4.225-7.273-4.225-12.232c0-4.957,1.466-8.99,4.4-12.1c2.932-3.108,6.775-4.663,11.527-4.663
		c4.752,0,8.272,1.438,10.559,4.312c2.289,2.875,3.434,6.776,3.434,11.704c0,0.529-0.236,0.793-0.705,0.793h-27.719v0.088
		c0,4.693,1.305,8.434,3.916,11.219c2.609,2.787,6.115,4.182,10.516,4.182c5.631,0,9.768-2.113,12.409-6.336
		c0.293-0.41,0.645-0.484,1.055-0.221s0.498,0.602,0.264,1.012C278.648,68.445,274.072,70.791,267.855,70.791z M280.352,52.311
		c0-4.166-1.027-7.509-3.08-10.033c-2.055-2.521-5.164-3.784-9.329-3.784c-4.166,0-7.539,1.263-10.119,3.784
		c-2.583,2.523-4.049,5.867-4.4,10.033H280.352z"/>
	<path fill="none" stroke="#F19C22" stroke-width="2" stroke-miterlimit="10" d="M302.086,70.35h-3.256
		c-3.871,0-5.809-1.553-5.809-4.664V5.846h-7.656c-0.469,0-0.703-0.249-0.703-0.748c0-0.498,0.234-0.748,0.703-0.748h8.361
		c0.527,0,0.791,0.264,0.791,0.792v60.543c0,2.113,1.438,3.168,4.313,3.168h3.256c0.527,0,0.793,0.25,0.793,0.748
		C302.879,70.102,302.613,70.35,302.086,70.35z"/>
	<path fill="none" stroke="#F19C22" stroke-width="2" stroke-miterlimit="10" d="M323.646,70.791c-4.988,0-8.889-1.6-11.705-4.797
		s-4.223-7.273-4.223-12.232c0-4.957,1.465-8.99,4.398-12.1c2.934-3.108,6.777-4.663,11.529-4.663s8.271,1.438,10.559,4.312
		c2.289,2.875,3.434,6.776,3.434,11.704c0,0.529-0.236,0.793-0.705,0.793h-27.719v0.088c0,4.693,1.305,8.434,3.916,11.219
		c2.609,2.787,6.115,4.182,10.516,4.182c5.631,0,9.768-2.113,12.408-6.336c0.293-0.41,0.645-0.484,1.055-0.221
		s0.498,0.602,0.264,1.012C334.439,68.445,329.863,70.791,323.646,70.791z M336.143,52.311c0-4.166-1.027-7.509-3.08-10.033
		c-2.055-2.521-5.164-3.784-9.328-3.784c-4.166,0-7.539,1.263-10.121,3.784c-2.582,2.523-4.047,5.867-4.398,10.033H336.143z"/>
	<path fill="none" stroke="#F19C22" stroke-width="2" stroke-miterlimit="10" d="M405.221,70.35h-3.256
		c-3.873,0-5.809-1.553-5.809-4.664V45.623c0-4.753-2.523-7.129-7.568-7.129c-5.631,0-10.266,3.375-13.902,10.12v21.385
		c0,0.469-0.252,0.703-0.748,0.703c-0.5,0-0.748-0.234-0.748-0.703V45.623c0-4.753-2.523-7.129-7.568-7.129
		c-5.574,0-10.209,3.375-13.904,10.12v21.385c0,0.469-0.25,0.703-0.748,0.703c-0.5,0-0.748-0.234-0.748-0.703V41.574
		c0-2.053-1.438-3.08-4.313-3.08h-3.256c-0.527,0-0.791-0.248-0.791-0.747c0-0.498,0.264-0.748,0.791-0.748h3.256
		c3.873,0,5.809,1.525,5.809,4.575v4.4c3.754-5.984,8.389-8.976,13.904-8.976c6.041,0,9.064,2.875,9.064,8.624v0.352
		c3.752-5.984,8.389-8.976,13.902-8.976c6.043,0,9.064,2.875,9.064,8.624v20.063c0,2.113,1.438,3.168,4.313,3.168h3.256
		c0.527,0,0.791,0.25,0.791,0.748C406.012,70.102,405.748,70.35,405.221,70.35z"/>
	<path fill="none" stroke="#F19C22" stroke-width="2" stroke-miterlimit="10" d="M426.164,70.791c-4.988,0-8.889-1.6-11.705-4.797
		s-4.223-7.273-4.223-12.232c0-4.957,1.465-8.99,4.398-12.1c2.934-3.108,6.777-4.663,11.529-4.663s8.271,1.438,10.559,4.312
		c2.289,2.875,3.434,6.776,3.434,11.704c0,0.529-0.236,0.793-0.705,0.793h-27.719v0.088c0,4.693,1.305,8.434,3.916,11.219
		c2.609,2.787,6.115,4.182,10.516,4.182c5.631,0,9.768-2.113,12.408-6.336c0.293-0.41,0.645-0.484,1.055-0.221
		s0.498,0.602,0.264,1.012C436.957,68.445,432.381,70.791,426.164,70.791z M438.66,52.311c0-4.166-1.027-7.509-3.08-10.033
		c-2.055-2.521-5.164-3.784-9.328-3.784c-4.166,0-7.539,1.263-10.121,3.784c-2.582,2.523-4.047,5.867-4.398,10.033H438.66z"/>
	<path fill="none" stroke="#F19C22" stroke-width="2" stroke-miterlimit="10" d="M487.146,70.35h-3.256
		c-3.871,0-5.809-1.553-5.809-4.664V45.71c0-2.288-0.719-4.063-2.156-5.324c-1.438-1.261-3.475-1.893-6.115-1.893
		c-6.631,0-11.791,3.403-15.488,10.208v21.297c0,0.527-0.25,0.793-0.748,0.793s-0.748-0.266-0.748-0.793V42.102
		c0-2.112-1.438-3.168-4.311-3.168h-3.258c-0.527,0-0.791-0.249-0.791-0.748c0-0.498,0.264-0.748,0.791-0.748h3.258
		c3.871,0,5.807,1.556,5.807,4.664v3.96c3.754-6.042,8.918-9.063,15.488-9.063c3.227,0,5.66,0.807,7.305,2.42
		c1.641,1.614,2.463,3.711,2.463,6.292v19.975c0,2.113,1.438,3.168,4.313,3.168h3.256c0.527,0,0.793,0.25,0.793,0.748
		C487.939,70.102,487.674,70.35,487.146,70.35z"/>
	<path fill="none" stroke="#F19C22" stroke-width="2" stroke-miterlimit="10" d="M516.012,38.934H498.41v21.912
		c0,3.111,0.674,5.295,2.025,6.557c1.348,1.262,3.797,1.893,7.348,1.893c3.549,0,6.76-0.881,9.635-2.641
		c0.41-0.234,0.705-0.205,0.881,0.088c0.176,0.295,0.264,0.527,0.264,0.703c0,0.178-0.117,0.354-0.352,0.529
		c-3.168,1.877-6.688,2.816-10.561,2.816c-3.871,0-6.629-0.762-8.271-2.289c-1.643-1.525-2.465-4.076-2.465-7.656V38.934h-7.039
		c-0.527,0-0.793-0.249-0.793-0.748c0-0.498,0.266-0.748,0.793-0.748h7.039V23.534c0-0.469,0.25-0.703,0.748-0.703
		s0.748,0.234,0.748,0.703v13.904h17.602c0.469,0,0.703,0.25,0.703,0.748C516.715,38.685,516.48,38.934,516.012,38.934z"/>
	<path fill="none" stroke="#F19C22" stroke-width="2" stroke-miterlimit="10" d="M524.193,68.502
		c-0.41-0.176-0.615-0.469-0.615-0.879v-7.656c0-0.469,0.248-0.705,0.748-0.705c0.498,0,0.748,0.236,0.748,0.705v7.215
		c2.697,1.408,6.424,2.113,11.176,2.113c8.271,0,12.408-2.465,12.408-7.393c0-1.936-0.764-3.578-2.289-4.928
		c-1.055-0.938-3.109-1.76-6.16-2.465c-0.646-0.117-2.625-0.541-5.939-1.275c-3.314-0.732-5.809-1.686-7.48-2.859
		s-2.508-2.875-2.508-5.105c0-5.514,4.254-8.271,12.76-8.271c4.576,0,8.361,0.792,11.354,2.376c0.469,0.234,0.703,0.499,0.703,0.792
		v7.479c0,0.471-0.25,0.704-0.748,0.704c-0.5,0-0.748-0.232-0.748-0.704v-7.04c-2.699-1.408-6.219-2.112-10.561-2.112
		c-7.51,0-11.264,2.26-11.264,6.776c0,1.584,0.41,2.699,1.232,3.343c0.82,0.646,1.451,1.115,1.893,1.408
		c0.439,0.295,1.143,0.588,2.111,0.881c0.969,0.295,1.627,0.498,1.98,0.615c2.229,0.529,3.842,0.881,4.84,1.057
		c0.996,0.176,1.893,0.352,2.684,0.527c0.793,0.176,1.92,0.529,3.389,1.057c1.465,0.527,2.58,1.086,3.344,1.672
		c1.936,1.584,2.904,3.432,2.904,5.545c0,2.111-0.455,3.783-1.365,5.016s-2.098,2.143-3.563,2.727
		c-2.76,1.115-6.117,1.674-10.076,1.674C531.189,70.791,527.537,70.029,524.193,68.502z"/>
</g>
<g>
	<g>
		<g>
			<path fill="#F19C22" d="M-59.262,266.98c46.627,0,93.255,0,139.882,0c33.04,0,66.079,0,99.118,0c3.224,0,3.224-5,0-5
				c-46.627,0-93.255,0-139.882,0c-33.04,0-66.079,0-99.118,0C-62.486,261.98-62.486,266.98-59.262,266.98L-59.262,266.98z"/>
		</g>
	</g>
	<g>
		<g>
			<path fill="#F19C22" d="M26.738,336.981c-36.667,0-73.333,0-110,0c-3.224,0-3.224,5,0,5c36.667,0,73.333,0,110,0
				C29.962,341.981,29.962,336.981,26.738,336.981L26.738,336.981z"/>
		</g>
	</g>
	<g>
		<g>
			<path fill="#F19C22" d="M79.738,341.981c35.333,0,70.667,0,106,0c3.224,0,3.224-5,0-5c-35.333,0-70.667,0-106,0
				C76.514,336.981,76.514,341.981,79.738,341.981L79.738,341.981z"/>
		</g>
	</g>
	<g>
		<g>
			<path fill="#F19C22" d="M223.738,266.98c17.667,0,35.333,0,53,0c3.224,0,3.224-5,0-5c-17.667,0-35.333,0-53,0
				C220.514,261.98,220.514,266.98,223.738,266.98L223.738,266.98z"/>
		</g>
	</g>
	<g>
		<g>
			<path fill="#F19C22" d="M292.738,266.98c45.656,0,91.313,0,136.971,0c38.01,0,76.02,0,114.029,0c3.225,0,3.225-5,0-5
				c-45.657,0-91.313,0-136.972,0c-38.01,0-76.02,0-114.028,0C289.514,261.98,289.514,266.98,292.738,266.98L292.738,266.98z"/>
		</g>
	</g>
	<g>
		<g>
			<path fill="#F19C22" d="M223.738,341.981c35.08,0,70.161,0,105.241,0c63.998,0,127.998,0,191.998,0c31.254,0,62.508,0,93.762,0
				c3.225,0,3.225-5,0-5c-35.08,0-70.16,0-105.24,0c-63.999,0-127.999,0-191.999,0c-31.253,0-62.507,0-93.761,0
				C220.514,336.981,220.514,341.981,223.738,341.981L223.738,341.981z"/>
		</g>
	</g>
	<g>
		<g>
			<path fill="#F19C22" d="M559.738,266.98c18.333,0,36.667,0,55,0c3.225,0,3.225-5,0-5c-18.333,0-36.667,0-55,0
				C556.514,261.98,556.514,266.98,559.738,266.98L559.738,266.98z"/>
		</g>
	</g>
</g>
</svg>
